#!OML:ASF E:\id_vita\Project 1\Capture day 1\Session 1\Male1.ASF
:FULLY-SPECIFIED
:DEGREES
1161
root -20.633 14.4048 0.132196 -640.874 -81.5372 687.175
lowerback 27.5157 3.44983 -7.67649
upperback 8.64301 1.89497 2.11277
thorax -5.82273 0.609535 6.19779
lowerneck -12.4796 0.275765 3.3129
upperneck 9.19287 -0.904795 5.22206
head 4.82579 -0.0121515 1.0155
rclavicle 1.31198e-014 -8.15017e-015
rhumerus 64.1951 17.3822 -56.629
rradius 22.2732
rwrist 20.9097
rhand -21.6333 30.5226
rfingers 7.12502
rthumb 4.7629 0.596149
lclavicle 1.31198e-014 -8.15017e-015
lhumerus 73.3774 -10.9636 54.6591
lradius 14.6971
lwrist -49.5413
lhand -40.1909 73.4934
lfingers 7.12502
lthumb -13.1518 256.941
rfemur -74.486 2.40078 36.4393
rtibia 61.6858
rfoot -28.6192 -13.4508
rtoes 0.918789
lfemur -88.2014 1.26313 -12.9792
ltibia 75.9413
lfoot -28.3935 4.36338
ltoes 0.0807175
1162
root -20.7341 14.3944 0.133141 -641.534 -81.8656 688.154
lowerback 27.2559 3.56286 -8.17231
upperback 8.55283 1.94524 2.1275
thorax -5.81498 0.641069 6.48707
lowerneck -11.9563 0.355918 3.79833
upperneck 8.88149 -0.744301 4.51906
head 4.63505 0.0244612 0.729056
rclavicle -2.42517e-014 -3.67752e-015
rhumerus 64.2614 17.4252 -56.0192
rradius 22.6253
rwrist 20.1164
rhand -21.6173 30.3871
rfingers 7.12502
rthumb 4.77827 0.460943
lclavicle -2.42517e-014 -3.67752e-015
lhumerus 73.4661 -11.0701 54.8982
lradius 14.7343
lwrist -49.6255
lhand -40.2661 73.5887
lfingers 7.12502
lthumb -13.2243 256.851
rfemur -74.4163 2.26173 36.1744
rtibia 61.7888
rfoot -28.8877 -13.9659
rtoes -0.471234
lfemur -89.8196 0.988992 -13.241
ltibia 74.4287
lfoot -28.9666 3.16126
ltoes 2.5658
1163
root -20.8313 14.3841 0.128919 -641.141 -81.9662 688.001
lowerback 26.9169 3.64134 -8.47859
upperback 8.56215 2.00453 2.15571
thorax -5.65639 0.663899 6.67898
lowerneck -11.8205 0.32539 3.77856
upperneck 8.72518 -0.746401 4.37859
head 4.563 0.00898617 0.687902
rclavicle -3.02153e-014 5.46658e-015
rhumerus 64.3178 17.1006 -56.111
rradius 22.1881
rwrist 21.1472
rhand -21.5018 30.4165
rfingers 7.12502
rthumb 4.88983 0.492961
lclavicle -3.02153e-014 5.46658e-015
lhumerus 73.731 -11.0987 54.4503
lradius 14.7166
lwrist -49.1311
lhand -40.3041 73.7308
lfingers 7.12502
lthumb -13.2609 256.711
rfemur -74.3417 2.41056 35.9908
rtibia 61.8451
rfoot -29.2782 -13.8866
rtoes 0.623808
lfemur -91.1737 0.851401 -13.1397
ltibia 72.7151
lfoot -29.2674 1.79256
ltoes 8.62697
1164
root -20.9289 14.3796 0.127975 -641.269 -81.6706 688.292
lowerback 26.8837 3.5359 -8.22973
upperback 8.54903 1.94311 2.18718
thorax -5.64156 0.636408 6.58942
lowerneck -12.1278 0.332405 3.40273
upperneck 9.1193 -0.749115 4.68464
head 4.73845 0.0286509 0.844876
rclavicle -5.64548e-014 -3.78685e-014
rhumerus 64.3737 16.9292 -56.3787
rradius 22.0151
rwrist 21.8535
rhand -21.4597 30.5014
rfingers 7.12502
rthumb 4.93049 0.578757
lclavicle -5.64548e-014 -3.78685e-014
lhumerus 73.9279 -10.9474 54.2648
lradius 14.6549
lwrist -49.0615
lhand -40.4643 73.8474
lfingers 7.12502
lthumb -13.4153 256.605
rfemur -73.9653 2.44662 36.2347
rtibia 61.8042
rfoot -29.3772 -14.7395
rtoes -0.0738417
lfemur -92.3492 0.640748 -12.6499
ltibia 70.8404
lfoot -25.8153 4.26963
ltoes -8.83627
1165
root -21.0228 14.3729 0.1298 -640.726 -81.5101 688.263
lowerback 26.3249 3.44071 -8.11854
upperback 8.50059 1.9169 2.22577
thorax -5.41969 0.623309 6.5776
lowerneck -12.1634 0.363633 3.47361
upperneck 9.19062 -0.703705 4.51777
head 4.76486 0.0459157 0.785502
rclavicle -8.74653e-015 4.47266e-015
rhumerus 64.3545 16.7379 -56.8263
rradius 22.1665
rwrist 22.0491
rhand -21.4625 30.7275
rfingers 7.12502
rthumb 4.92775 0.804844
lclavicle -8.74653e-015 4.47266e-015
lhumerus 73.982 -10.7332 54.8833
lradius 14.6655
lwrist -49.6791
lhand -40.5412 73.8458
lfingers 7.12502
lthumb -13.4895 256.611
rfemur -74.1485 2.62103 36.308
rtibia 61.7631
rfoot -30.1485 -14.4309
rtoes 0.157089
lfemur -93.8858 0.578807 -12.3441
ltibia 68.9239
lfoot -26.4091 2.40021
ltoes -9.43623
1166
root -21.1168 14.3736 0.128855 -639.953 -81.6086 687.669
lowerback 25.9314 3.56674 -8.44292
upperback 8.56817 2.0408 2.3238
thorax -5.182 0.668245 6.83955
lowerneck -12.0341 0.389625 3.47867
upperneck 9.0154 -0.644752 4.45162
head 4.68816 0.064531 0.76769
rclavicle -2.0276e-014 -4.36332e-014
rhumerus 64.5264 16.5505 -56.6338
rradius 22.5249
rwrist 20.9502
rhand -21.5164 31.0463
rfingers 7.12502
rthumb 4.87569 1.12235
lclavicle -2.0276e-014 -4.36332e-014
lhumerus 74.0634 -10.6273 55.5267
lradius 14.7476
lwrist -50.1424
lhand -40.4337 73.0676
lfingers 7.12502
lthumb -13.3859 257.382
rfemur -73.8979 2.7123 36.2416
rtibia 61.6816
rfoot -30.116 -15.0789
rtoes 0.22186
lfemur -94.9683 0.581301 -12.4152
ltibia 66.9615
lfoot -26.8682 1.1365
ltoes -9.0854
1167
root -21.2097 14.3725 0.130631 -639.81 -81.6124 687.666
lowerback 25.6416 3.60226 -8.54596
upperback 8.61396 2.09248 2.36526
thorax -5.00166 0.683364 6.93153
lowerneck -11.683 0.399355 3.72216
upperneck 8.62303 -0.598335 4.17194
head 4.50648 0.0637628 0.643287
rclavicle -6.16232e-014 -1.39149e-014
rhumerus 64.7299 16.4661 -55.8168
rradius 22.4825
rwrist 20.7586
rhand -21.424 30.8022
rfingers 7.12502
rthumb 4.96496 0.880334
lclavicle -6.16232e-014 -1.39149e-014
lhumerus 74.2093 -10.6286 55.3909
lradius 14.9651
lwrist -49.9347
lhand -40.417 72.3954
lfingers 7.12502
lthumb -13.3698 258.054
rfemur -73.583 2.64388 36.3014
rtibia 61.6185
rfoot -30.4918 -14.6129
rtoes 0.318234
lfemur -95.9286 0.474201 -12.5707
ltibia 64.9611
lfoot -26.6196 1.88157
ltoes -8.05076
1168
root -21.3117 14.3777 0.128167 -640.48 -81.7495 688.377
lowerback 25.54 3.62259 -8.7221
upperback 8.63903 2.08094 2.28595
thorax -4.92217 0.673425 6.9488
lowerneck -11.8813 0.416395 3.45351
upperneck 9.20336 -0.632645 4.64323
head 4.72259 0.0832922 0.832043
rclavicle -4.17448e-014 -6.86801e-014
rhumerus 64.8851 16.5656 -54.7716
rradius 22.7717
rwrist 19.8158
rhand -21.4288 30.6401
rfingers 7.12502
rthumb 4.96033 0.718209
lclavicle -4.17448e-014 -6.86801e-014
lhumerus 74.4669 -10.7069 54.8063
lradius 15.0908
lwrist -49.3412
lhand -40.2667 72.1695
lfingers 7.12502
lthumb -13.2249 258.27
rfemur -73.1449 2.55492 36.1249
rtibia 61.6244
rfoot -30.9658 -14.3052
rtoes 1.12781
lfemur -96.5728 0.291254 -12.5547
ltibia 62.8476
lfoot -25.3431 -0.296852
ltoes -8.25057
1169
root -21.4094 14.3715 0.130069 -639.766 -81.7841 687.667
lowerback 25.4306 3.68226 -8.80601
upperback 8.68285 2.14289 2.26011
thorax -4.83177 0.696031 6.95037
lowerneck -11.6082 0.404245 3.6731
upperneck 8.89201 -0.62835 4.44054
head 4.57951 0.0685405 0.73242
rclavicle 5.56597e-014 3.598e-014
rhumerus 64.8338 16.4141 -54.888
rradius 22.8548
rwrist 19.8827
rhand -21.2314 30.4716
rfingers 7.12502
rthumb 5.15093 0.554182
lclavicle 5.56597e-014 3.598e-014
lhumerus 74.7089 -10.6098 55.2749
lradius 14.7163
lwrist -49.8552
lhand -40.0504 72.5676
lfingers 7.12502
lthumb -13.0164 257.859
rfemur -72.7261 2.60718 36.1051
rtibia 61.7889
rfoot -31.5777 -14.1271
rtoes 1.85155
lfemur -97.0729 0.213883 -12.1991
ltibia 60.8139
lfoot -25.5534 -0.276228
ltoes -12.117
1170
root -21.5077 14.3262 0.136348 -639.171 -81.6567 687.356
lowerback 24.9381 3.63197 -8.75961
upperback 8.69549 2.14688 2.29276
thorax -4.57754 0.68995 6.96169
lowerneck -11.2815 0.43451 4.06191
upperneck 8.48097 -0.56205 4.03429
head 4.39565 0.0747816 0.547287
rclavicle -1.59028e-014 -5.55603e-014
rhumerus 64.6914 15.9851 -55.9332
rradius 22.5853
rwrist 21.1446
rhand -21.1541 30.6519
rfingers 7.12502
rthumb 5.22554 0.736328
lclavicle -1.59028e-014 -5.55603e-014
lhumerus 74.698 -10.3567 56.5574
lradius 14.4417
lwrist -51.2971
lhand -40.2231 73.2252
lfingers 7.12502
lthumb -13.1828 257.212
rfemur -72.626 2.67386 36.2648
rtibia 61.8464
rfoot -31.7598 -14.6727
rtoes 0.140643
lfemur -97.7185 0.119674 -11.313
ltibia 59.1011
lfoot -24.7676 -0.342875
ltoes -5.61336
1171
root -21.6112 14.2544 0.152257 -637.732 -81.8037 686.052
lowerback 24.5492 3.73434 -8.99652
upperback 8.71996 2.26198 2.28446
thorax -4.38435 0.735082 7.05892
lowerneck -10.9873 0.363651 4.04712
upperneck 8.18949 -0.614617 3.98058
head 4.25689 0.0343075 0.528156
rclavicle -5.56597e-015 8.05078e-015
rhumerus 64.6467 15.6935 -56.2304
rradius 22.4201
rwrist 21.7821
rhand -21.0746 30.7046
rfingers 7.12502
rthumb 5.30232 0.790977
lclavicle -5.56597e-015 8.05078e-015
lhumerus 74.525 -10.3522 56.8664
lradius 15.0048
lwrist -51.489
lhand -40.1069 72.3655
lfingers 7.12502
lthumb -13.0708 258.064
rfemur -72.5304 2.78743 36.1842
rtibia 62.266
rfoot -31.9592 -15.4022
rtoes -1.98286
lfemur -97.6943 0.112729 -9.78241
ltibia 57.1887
lfoot -26.0073 -1.39507
ltoes -12.5827
